# xmcd
#
# Track frame offsets: 
#        150
#        16064
#        34369
#        56752
#        77263
#        107384
#        137530
#        161644
#        179714
#        201674
#        223707
#        258380
#
# Disc length: 3748 seconds
#
# Revision: 0
# Processed by: cddbd v1.5.2PL0 Copyright (c) Steve Scherf et al.
# Submitted via: ExactAudioCopy v1.0b3
#
DISCID=a60ea20c
DTITLE=Various Artist - Tinh Yeu La Chiec Bong
DYEAR=1993
DGENRE=
TTITLE0=Phuong Thao - Loi gioi thieu
TTITLE1=Thanh Lan - Di qua vung co non
TTITLE2=Hong Nhung - Tinh yeu
TTITLE3=Phuong Thao - Giac mo chieu
TTITLE4=Thu Ha - Buoc xuong doi
TTITLE5=Hong Nhung - Tinh ca
TTITLE6=Thanh Lan - Bong cuc trang
TTITLE7=Cam Van - Van hat ru em
TTITLE8=Le Thu - Tinh yeu la chiec bong
TTITLE9=Thuy Duong - Mung tuoi Me
TTITLE10=Phuong Thao - Ru loi thien co
TTITLE11=Lan Ngoc - Mot doi nguoi mot rung cay
EXTD=
EXTT0=
EXTT1=
EXTT2=
EXTT3=
EXTT4=
EXTT5=
EXTT6=
EXTT7=
EXTT8=
EXTT9=
EXTT10=
EXTT11=
PLAYORDER=
